PathFileType	4	(X/Y/Z)	C:\Users\chris\Documents\GitHub\baseballds\vids\pitch7_Sports2D\pitch7_Sports2D_px_person00.trc
DataRate	CameraRate	NumFrames	NumMarkers	Units	OrigDataRate	OrigDataStartFrame	OrigNumFrames
30	30	8	22	m	30	0	236
Frame#	Time	Hip			RHip			RKnee			RAnkle			RBigToe			RSmallToe			RHeel			LHip			LKnee			LAnkle			LBigToe			LSmallToe			LHeel			Neck			Head			Nose			RShoulder			RElbow			RWrist			LShoulder			LElbow			LWrist		
		X1	Y1	Z1	X2	Y2	Z2	X3	Y3	Z3	X4	Y4	Z4	X5	Y5	Z5	X6	Y6	Z6	X7	Y7	Z7	X8	Y8	Z8	X9	Y9	Z9	X10	Y10	Z10	X11	Y11	Z11	X12	Y12	Z12	X13	Y13	Z13	X14	Y14	Z14	X15	Y15	Z15	X16	Y16	Z16	X17	Y17	Z17	X18	Y18	Z18	X19	Y19	Z19	X20	Y20	Z20	X21	Y21	Z21	X22	Y22	Z22
0	0.0	686.2874849469125	525.1402278122158	0.0	637.7019681041644	545.0162058113018	0.0	615.617487208902	737.1506880310109	0.0	593.5329823640418	896.158587363135	0.0	597.9499220434059	973.4538580067353	0.0	562.6148454234951	964.6204505948563	0.0	597.9501918076631	922.6597868003287	0.0	737.0816511929589	545.0161349536295	0.0	754.7491702931404	737.1505413852693	0.0	774.6250783040337	885.1161895970054	0.0	741.4988892342756	951.3694129753094	0.0	776.8339681162327	949.1608058466204	0.0	781.2507103096154	909.4091027106149	0.0	688.4957024077004	240.2513079177206	0.0	703.9553432733956	109.95369433650777	0.0	756.9574328285573	173.99863757096313	0.0	591.3246024514417	295.4624574328102	0.0	571.4486354589518	443.42803586817456	0.0	562.6149435461484	571.5173105471248	0.0	783.4588420892495	288.8374332176233	0.0	816.5854780797742	414.7185461478473	0.0	862.9630470935883	520.7238195160387	0.0
1	0.03333333333333333	687.4261817123898	523.5507757065683	0.0	637.7807741321667	541.5624124258028	0.0	616.373486329509	736.3107745422299	0.0	590.2929046643956	896.511937878865	0.0	592.533672497091	971.4119128729924	0.0	559.6740398784544	965.0776604338284	0.0	596.1398463580607	923.8819148426555	0.0	739.4934652160302	543.4292071212861	0.0	753.0954023727265	734.5609118289531	0.0	775.517693929911	884.8753551082682	0.0	741.5123728908046	950.8367148888334	0.0	777.0966909946169	950.2080250700735	0.0	780.1718587267518	909.3410015340627	0.0	687.8022556864162	238.92355748361368	0.0	706.5461800520354	109.52304538811526	0.0	757.4944415610823	173.21753610624629	0.0	591.5314462666084	295.9657804706027	0.0	571.9181856598656	443.6662525237476	0.0	560.7120052118994	572.1108137727771	0.0	782.7494391476878	284.84200961721126	0.0	815.7419286490476	411.9303608250451	0.0	861.9874865145817	516.5937217016497	0.0
2	0.06666666666666667	688.3669402172366	521.9796988197121	0.0	638.2656485526118	539.8056258912932	0.0	617.2402727189294	735.1702143981288	0.0	589.2880348142659	895.0093361965969	0.0	591.1531702159325	969.7858227009907	0.0	558.7355970773164	964.5629152899028	0.0	595.5064906188419	922.0571466443525	0.0	741.0088001951567	542.3010653109588	0.0	752.9600866228855	732.3827403109044	0.0	775.8927601879219	883.7176190115673	0.0	741.7346969011787	949.9195000405471	0.0	777.9001016159381	949.853768003692	0.0	779.2484572626993	907.6964963964315	0.0	687.285748333397	238.21621921396988	0.0	708.2259059514201	109.11732645921403	0.0	757.6442503941578	172.9979205509731	0.0	591.7115050945932	296.0786412960384	0.0	573.1561029321086	443.28810659271795	0.0	561.0876942209029	571.1846139311185	0.0	781.9423021409665	282.58061996460424	0.0	815.3494992208742	409.72549837494074	0.0	861.6834414983235	513.7062281593627	0.0
3	0.1	688.540987881431	520.1804355052864	0.0	638.7372157322568	538.7151193000534	0.0	617.9007571267321	733.6648361805303	0.0	590.462693316247	892.5142585632058	0.0	593.2410698697743	968.2472230316237	0.0	559.7172553313778	962.8438760709341	0.0	596.511295333479	918.379693755207	0.0	741.1578860728774	540.747824454465	0.0	754.1378253836327	730.3887380176973	0.0	775.9135840905176	882.1315184656526	0.0	742.4813246302494	948.1570888209026	0.0	778.8669615806268	947.6973527547441	0.0	779.1846968496674	905.2528578394454	0.0	687.6828583440044	237.92262808752778	0.0	708.9807121525282	108.75033848804806	0.0	757.0636790628167	172.83217739223298	0.0	592.0203968778037	295.82553640326444	0.0	574.6768813943264	442.1495339142276	0.0	563.850374686436	569.3621570884737	0.0	781.5661207471807	281.94331985003794	0.0	815.4967221809062	408.4936910430255	0.0	862.3154347802702	512.7594636990137	0.0
4	0.13333333333333333	688.1181137923077	518.1294278033649	0.0	639.0176845349347	536.4028944052666	0.0	618.4910812430601	731.7635670408912	0.0	591.8172824387203	890.6387991260772	0.0	595.2105997876731	966.2910066254029	0.0	561.094420869677	960.523997499766	0.0	597.7181382990631	915.7100474442086	0.0	740.5773471956487	538.2530786992761	0.0	755.1661519338461	728.1375915597374	0.0	776.1218971200469	880.9741144390707	0.0	743.5929753745023	945.810377451882	0.0	779.290299334779	944.9828267881513	0.0	779.9966035276759	903.7772859483691	0.0	688.85469378025	237.12719354921478	0.0	709.6019785499391	108.39185430709111	0.0	755.622262640741	172.01111236717222	0.0	592.8435772628268	294.9960364206549	0.0	576.2072319021424	440.37122609018485	0.0	567.0024034691346	568.1947318747106	0.0	781.8134370626268	281.6623676987445	0.0	815.8821467166896	407.72918597610044	0.0	862.9504158697902	512.5815829487101	0.0
5	0.16666666666666666	688.274733431488	516.4439914866299	0.0	639.5630450548531	533.3715780594587	0.0	619.5244952276533	729.6646131153448	0.0	592.262847593246	889.495016574242	0.0	595.4569259763915	964.1795010591188	0.0	561.9093600040984	958.4800736758683	0.0	597.7009594538309	914.9281352779142	0.0	740.4094200750015	535.9832120786608	0.0	755.2448224716102	725.7852812603298	0.0	776.7716153319875	880.2005525281196	0.0	744.5528573705753	943.8425062507988	0.0	779.3908137286862	943.2414030808972	0.0	780.7647162388928	902.9753864364403	0.0	689.6631960127881	235.7806825468649	0.0	710.7870562980269	108.00810580499763	0.0	753.4844499750567	171.0377162469885	0.0	594.358721964596	293.46425038405283	0.0	578.1891250495714	438.3572194260229	0.0	569.2073629796625	567.8373041157311	0.0	782.3477853302475	281.1567487273632	0.0	816.3380906421702	406.8732551805671	0.0	862.7100864919421	511.6105457680058	0.0
6	0.2	689.572697640122	515.8089766181338	0.0	640.6452806581603	532.1219366210894	0.0	620.8436460381497	727.9623196079588	0.0	592.9938188174352	888.2415644346198	0.0	595.8746716353954	962.3515091224194	0.0	562.9068332078826	956.8236685189918	0.0	597.5894460352391	914.4713232838606	0.0	740.8303363200965	535.2861764394069	0.0	755.0889662573074	724.1610587266817	0.0	777.5979043188038	879.0076627074053	0.0	745.396362040615	942.6987496282703	0.0	780.2145164979821	942.3772670567201	0.0	781.296197409187	901.0516670070081	0.0	689.8104757266267	235.1462790850581	0.0	712.3308207526012	107.66748682927843	0.0	750.8814319382941	171.1090194768464	0.0	595.9789871956162	292.2275587088943	0.0	580.2174287824248	436.82526383896396	0.0	571.1927526637055	567.3354637845941	0.0	783.0361100597639	280.8892510271409	0.0	817.1120018996046	406.42973729522987	0.0	862.4531395084396	510.6549475959051	0.0
7	0.23333333333333334	691.0714435009438	516.0130289152141	0.0	642.0322045905307	533.3155349449485	0.0	621.9117783949995	727.0472593381439	0.0	594.9336160899569	886.6573111776172	0.0	597.9324617060552	960.4520591840355	0.0	564.8901076671425	954.9696564338976	0.0	598.9690673325656	912.8956322111583	0.0	741.2623920294013	536.0437045325201	0.0	755.7888261493117	723.7790338777522	0.0	778.2394196608653	877.193075803117	0.0	746.388571981528	941.8156841478723	0.0	781.7000915203092	941.316691558113	0.0	782.3043334636523	898.1880489812818	0.0	690.0520696882509	235.9042239983138	0.0	713.5529754785357	107.47231394608879	0.0	748.1290729019114	172.43082215694054	0.0	596.9956309355844	292.2001350343789	0.0	581.4370045511987	436.074291791409	0.0	573.7144982219176	566.1756995810523	0.0	783.8395957258851	281.069951725376	0.0	818.2296035268192	406.7030541739224	0.0	863.3799258320502	511.23638711863146	0.0
